G04 ===== Begin FILE IDENTIFICATION =====*
G04 File Format:  Gerber RS274X*
G04 ===== End FILE IDENTIFICATION =====*
%FSLAX24Y24*%
%MOIN*%
%SFA1.0000B1.0000*%
%OFA0.0B0.0*%
%ADD14R,0.716535X0.070866*%
%ADD15R,0.393701X0.067091*%
%ADD16R,0.724409X0.059055*%
%ADD17C,0.000025*%
%LNcond*%
%IPPOS*%
%LPD*%
G75*
D14*
X-17992Y3386D03*
Y2047D03*
D15*
X-30787Y4094D03*
D16*
X-25197D03*
Y3386D03*
D15*
X1969Y0D03*
D16*
X-3622Y709D03*
Y0D03*
D14*
X-10827Y2047D03*
Y709D03*
D17*
G01X-31573Y-556D02*
G01Y-1302D01*
G01Y-556D02*
G01X-31253D01*
G01X-31147Y-592D01*
G01X-31111Y-627D01*
G01X-31076Y-698D01*
G01Y-769D01*
G01X-31111Y-840D01*
G01X-31147Y-876D01*
G01X-31253Y-911D01*
G01X-31573D02*
G01X-31253D01*
G01X-31147Y-947D01*
G01X-31111Y-982D01*
G01X-31076Y-1053D01*
G01Y-1160D01*
G01X-31111Y-1231D01*
G01X-31147Y-1266D01*
G01X-31253Y-1302D01*
G01X-31573D01*
G01X-30721Y-556D02*
G01Y-1302D01*
G01Y-556D02*
G01X-30402D01*
G01X-30295Y-592D01*
G01X-30260Y-627D01*
G01X-30224Y-698D01*
G01Y-805D01*
G01X-30260Y-876D01*
G01X-30295Y-911D01*
G01X-30402Y-947D01*
G01X-30721D01*
G01X-29940Y-982D02*
G01X-29302D01*
G01X-28982Y-556D02*
G01Y-1302D01*
G01Y-556D02*
G01X-28521D01*
G01X-28982Y-911D02*
G01X-28698D01*
G01X-27953Y-556D02*
G01X-27918Y-592D01*
G01X-27882Y-556D01*
G01X-27918Y-521D01*
G01X-27953Y-556D01*
G01X-27918Y-805D02*
G01Y-1302D01*
G01X-27066Y-556D02*
G01Y-1302D01*
G01X-26215Y-556D02*
G01Y-1160D01*
G01X-26179Y-1266D01*
G01X-26108Y-1302D01*
G01X-26037D01*
G01X-26321Y-805D02*
G01X-26073D01*
G01X-25576Y-1018D02*
G01X-25150D01*
G01Y-947D01*
G01X-25185Y-876D01*
G01X-25221Y-840D01*
G01X-25292Y-805D01*
G01X-25398D01*
G01X-25469Y-840D01*
G01X-25540Y-911D01*
G01X-25576Y-1018D01*
G01Y-1089D01*
G01X-25540Y-1195D01*
G01X-25469Y-1266D01*
G01X-25398Y-1302D01*
G01X-25292D01*
G01X-25221Y-1266D01*
G01X-25150Y-1195D01*
G01X-24618Y-805D02*
G01Y-1302D01*
G01Y-1018D02*
G01X-24582Y-911D01*
G01X-24511Y-840D01*
G01X-24440Y-805D01*
G01X-24334D01*
G01X-22524Y-734D02*
G01X-22560Y-663D01*
G01X-22631Y-592D01*
G01X-22702Y-556D01*
G01X-22844D01*
G01X-22915Y-592D01*
G01X-22985Y-663D01*
G01X-23021Y-734D01*
G01X-23056Y-840D01*
G01Y-1018D01*
G01X-23021Y-1124D01*
G01X-22985Y-1195D01*
G01X-22915Y-1266D01*
G01X-22844Y-1302D01*
G01X-22702D01*
G01X-22631Y-1266D01*
G01X-22560Y-1195D01*
G01X-22524Y-1124D01*
G01X-22134Y-556D02*
G01Y-1302D01*
G01Y-947D02*
G01X-22027Y-840D01*
G01X-21956Y-805D01*
G01X-21850D01*
G01X-21779Y-840D01*
G01X-21744Y-947D01*
G01Y-1302D01*
G01X-21318Y-1018D02*
G01X-20892D01*
G01Y-947D01*
G01X-20927Y-876D01*
G01X-20963Y-840D01*
G01X-21034Y-805D01*
G01X-21140D01*
G01X-21211Y-840D01*
G01X-21282Y-911D01*
G01X-21318Y-1018D01*
G01Y-1089D01*
G01X-21282Y-1195D01*
G01X-21211Y-1266D01*
G01X-21140Y-1302D01*
G01X-21034D01*
G01X-20963Y-1266D01*
G01X-20892Y-1195D01*
G01X-20466Y-556D02*
G01Y-1302D01*
G01Y-911D02*
G01X-20395Y-840D01*
G01X-20324Y-805D01*
G01X-20218D01*
G01X-20147Y-840D01*
G01X-20076Y-911D01*
G01X-20040Y-1018D01*
G01Y-1089D01*
G01X-20076Y-1195D01*
G01X-20147Y-1266D01*
G01X-20218Y-1302D01*
G01X-20324D01*
G01X-20395Y-1266D01*
G01X-20466Y-1195D01*
G01X-19615Y-805D02*
G01X-19402Y-1302D01*
G01X-19189Y-805D02*
G01X-19402Y-1302D01*
G01X-19473Y-1444D01*
G01X-19544Y-1515D01*
G01X-19615Y-1550D01*
G01X-19650D01*
G01X-18337Y-911D02*
G01X-18373Y-840D01*
G01X-18479Y-805D01*
G01X-18585D01*
G01X-18692Y-840D01*
G01X-18727Y-911D01*
G01X-18692Y-982D01*
G01X-18621Y-1018D01*
G01X-18444Y-1053D01*
G01X-18373Y-1089D01*
G01X-18337Y-1160D01*
G01Y-1195D01*
G01X-18373Y-1266D01*
G01X-18479Y-1302D01*
G01X-18585D01*
G01X-18692Y-1266D01*
G01X-18727Y-1195D01*
G01X-17876Y-556D02*
G01Y-1302D01*
G01Y-947D02*
G01X-17769Y-840D01*
G01X-17698Y-805D01*
G01X-17592D01*
G01X-17521Y-840D01*
G01X-17485Y-947D01*
G01Y-1302D01*
G01X-17060Y-1018D02*
G01X-16634D01*
G01Y-947D01*
G01X-16669Y-876D01*
G01X-16705Y-840D01*
G01X-16776Y-805D01*
G01X-16882D01*
G01X-16953Y-840D01*
G01X-17024Y-911D01*
G01X-17060Y-1018D01*
G01Y-1089D01*
G01X-17024Y-1195D01*
G01X-16953Y-1266D01*
G01X-16882Y-1302D01*
G01X-16776D01*
G01X-16705Y-1266D01*
G01X-16634Y-1195D01*
G01X-16208Y-805D02*
G01X-15995Y-1302D01*
G01X-15782Y-805D02*
G01X-15995Y-1302D01*
G01X-31573Y-1656D02*
G01Y-2402D01*
G01Y-1656D02*
G01X-31253D01*
G01X-31147Y-1692D01*
G01X-31111Y-1727D01*
G01X-31076Y-1798D01*
G01Y-1869D01*
G01X-31111Y-1940D01*
G01X-31147Y-1976D01*
G01X-31253Y-2011D01*
G01X-31573D01*
G01X-31324D02*
G01X-31076Y-2402D01*
G01X-30508Y-1656D02*
G01X-30473Y-1692D01*
G01X-30437Y-1656D01*
G01X-30473Y-1621D01*
G01X-30508Y-1656D01*
G01X-30473Y-1905D02*
G01Y-2402D01*
G01X-29834Y-1905D02*
G01Y-2650D01*
G01Y-2011D02*
G01X-29763Y-1940D01*
G01X-29692Y-1905D01*
G01X-29585D01*
G01X-29515Y-1940D01*
G01X-29444Y-2011D01*
G01X-29408Y-2118D01*
G01Y-2189D01*
G01X-29444Y-2295D01*
G01X-29515Y-2366D01*
G01X-29585Y-2402D01*
G01X-29692D01*
G01X-29763Y-2366D01*
G01X-29834Y-2295D01*
G01X-28982Y-1905D02*
G01Y-2650D01*
G01Y-2011D02*
G01X-28911Y-1940D01*
G01X-28840Y-1905D01*
G01X-28734D01*
G01X-28663Y-1940D01*
G01X-28592Y-2011D01*
G01X-28556Y-2118D01*
G01Y-2189D01*
G01X-28592Y-2295D01*
G01X-28663Y-2366D01*
G01X-28734Y-2402D01*
G01X-28840D01*
G01X-28911Y-2366D01*
G01X-28982Y-2295D01*
G01X-27918Y-1656D02*
G01Y-2402D01*
G01X-27279Y-2118D02*
G01X-26853D01*
G01Y-2047D01*
G01X-26889Y-1976D01*
G01X-26924Y-1940D01*
G01X-26995Y-1905D01*
G01X-27102D01*
G01X-27173Y-1940D01*
G01X-27244Y-2011D01*
G01X-27279Y-2118D01*
G01Y-2189D01*
G01X-27244Y-2295D01*
G01X-27173Y-2366D01*
G01X-27102Y-2402D01*
G01X-26995D01*
G01X-26924Y-2366D01*
G01X-26853Y-2295D01*
G01X-26534Y-1976D02*
G01X-25895D01*
G01X-26534Y-2189D02*
G01X-25895D01*
G01X-25398Y-1656D02*
G01X-25505Y-1692D01*
G01X-25576Y-1798D01*
G01X-25611Y-1976D01*
G01Y-2082D01*
G01X-25576Y-2260D01*
G01X-25505Y-2366D01*
G01X-25398Y-2402D01*
G01X-25327D01*
G01X-25221Y-2366D01*
G01X-25150Y-2260D01*
G01X-25115Y-2082D01*
G01Y-1976D01*
G01X-25150Y-1798D01*
G01X-25221Y-1692D01*
G01X-25327Y-1656D01*
G01X-25398D01*
G01X-24511Y-2331D02*
G01X-24547Y-2366D01*
G01X-24511Y-2402D01*
G01X-24476Y-2366D01*
G01X-24511Y-2331D01*
G01X-23482Y-1656D02*
G01X-23837D01*
G01X-23873Y-1976D01*
G01X-23837Y-1940D01*
G01X-23731Y-1905D01*
G01X-23624D01*
G01X-23518Y-1940D01*
G01X-23447Y-2011D01*
G01X-23411Y-2118D01*
G01Y-2189D01*
G01X-23447Y-2295D01*
G01X-23518Y-2366D01*
G01X-23624Y-2402D01*
G01X-23731D01*
G01X-23837Y-2366D01*
G01X-23873Y-2331D01*
G01X-23908Y-2260D01*
G01X-31537Y-2756D02*
G01Y-3502D01*
G01Y-2756D02*
G01X-31076D01*
G01X-31537Y-3111D02*
G01X-31253D01*
G01X-30508Y-2756D02*
G01X-30615Y-2792D01*
G01X-30685Y-2898D01*
G01X-30721Y-3076D01*
G01Y-3182D01*
G01X-30685Y-3360D01*
G01X-30615Y-3466D01*
G01X-30508Y-3502D01*
G01X-30437D01*
G01X-30331Y-3466D01*
G01X-30260Y-3360D01*
G01X-30224Y-3182D01*
G01Y-3076D01*
G01X-30260Y-2898D01*
G01X-30331Y-2792D01*
G01X-30437Y-2756D01*
G01X-30508D01*
G01X-29940Y-3076D02*
G01X-29302D01*
G01X-29940Y-3289D02*
G01X-29302D01*
G01X-28982Y-2934D02*
G01Y-2898D01*
G01X-28947Y-2827D01*
G01X-28911Y-2792D01*
G01X-28840Y-2756D01*
G01X-28698D01*
G01X-28627Y-2792D01*
G01X-28592Y-2827D01*
G01X-28556Y-2898D01*
G01Y-2969D01*
G01X-28592Y-3040D01*
G01X-28663Y-3147D01*
G01X-29018Y-3502D01*
G01X-28521D01*
G01X-27811Y-2756D02*
G01X-28166Y-3253D01*
G01X-27634D01*
G01X-27811Y-2756D02*
G01Y-3502D01*
G01X-26889Y-2756D02*
G01X-27244D01*
G01X-27279Y-3076D01*
G01X-27244Y-3040D01*
G01X-27137Y-3005D01*
G01X-27031D01*
G01X-26924Y-3040D01*
G01X-26853Y-3111D01*
G01X-26818Y-3218D01*
G01Y-3289D01*
G01X-26853Y-3395D01*
G01X-26924Y-3466D01*
G01X-27031Y-3502D01*
G01X-27137D01*
G01X-27244Y-3466D01*
G01X-27279Y-3431D01*
G01X-27315Y-3360D01*
G01X-26250Y-2756D02*
G01X-26356Y-2792D01*
G01X-26427Y-2898D01*
G01X-26463Y-3076D01*
G01Y-3182D01*
G01X-26427Y-3360D01*
G01X-26356Y-3466D01*
G01X-26250Y-3502D01*
G01X-26179D01*
G01X-26073Y-3466D01*
G01X-26002Y-3360D01*
G01X-25966Y-3182D01*
G01Y-3076D01*
G01X-26002Y-2898D01*
G01X-26073Y-2792D01*
G01X-26179Y-2756D01*
G01X-26250D01*
G01X-24795D02*
G01Y-3502D01*
G01Y-2756D02*
G01X-24511Y-3502D01*
G01X-24227Y-2756D02*
G01X-24511Y-3502D01*
G01X-24227Y-2756D02*
G01Y-3502D01*
G01X-23908Y-2756D02*
G01Y-3502D01*
G01X-23411Y-2756D02*
G01Y-3502D01*
G01X-23908Y-3111D02*
G01X-23411D01*
G01X-22595Y-3005D02*
G01X-22985Y-3502D01*
G01Y-3005D02*
G01X-22595D01*
G01X-22985Y-3502D02*
G01X-22595D01*
G01X-21921Y-3466D02*
G01X-21956Y-3502D01*
G01X-21992Y-3466D01*
G01X-21956Y-3431D01*
G01X-21921Y-3466D01*
G01Y-3537D01*
G01X-21956Y-3608D01*
G01X-21992Y-3644D01*
G01X-20502Y-2756D02*
G01Y-3502D01*
G01Y-2756D02*
G01X-20182D01*
G01X-20076Y-2792D01*
G01X-20040Y-2827D01*
G01X-20005Y-2898D01*
G01Y-2969D01*
G01X-20040Y-3040D01*
G01X-20076Y-3076D01*
G01X-20182Y-3111D01*
G01X-20502D02*
G01X-20182D01*
G01X-20076Y-3147D01*
G01X-20040Y-3182D01*
G01X-20005Y-3253D01*
G01Y-3360D01*
G01X-20040Y-3431D01*
G01X-20076Y-3466D01*
G01X-20182Y-3502D01*
G01X-20502D01*
G01X-19721Y-3076D02*
G01X-19082D01*
G01X-19721Y-3289D02*
G01X-19082D01*
G01X-18692Y-2898D02*
G01X-18621Y-2863D01*
G01X-18515Y-2756D01*
G01Y-3502D01*
G01X-17734Y-2756D02*
G01X-17840Y-2792D01*
G01X-17911Y-2898D01*
G01X-17947Y-3076D01*
G01Y-3182D01*
G01X-17911Y-3360D01*
G01X-17840Y-3466D01*
G01X-17734Y-3502D01*
G01X-17663D01*
G01X-17556Y-3466D01*
G01X-17485Y-3360D01*
G01X-17450Y-3182D01*
G01Y-3076D01*
G01X-17485Y-2898D01*
G01X-17556Y-2792D01*
G01X-17663Y-2756D01*
G01X-17734D01*
G01X-16882D02*
G01X-16989Y-2792D01*
G01X-17060Y-2898D01*
G01X-17095Y-3076D01*
G01Y-3182D01*
G01X-17060Y-3360D01*
G01X-16989Y-3466D01*
G01X-16882Y-3502D01*
G01X-16811D01*
G01X-16705Y-3466D01*
G01X-16634Y-3360D01*
G01X-16598Y-3182D01*
G01Y-3076D01*
G01X-16634Y-2898D01*
G01X-16705Y-2792D01*
G01X-16811Y-2756D01*
G01X-16882D01*
G01X-15427D02*
G01Y-3502D01*
G01Y-2756D02*
G01X-15144Y-3502D01*
G01X-14860Y-2756D02*
G01X-15144Y-3502D01*
G01X-14860Y-2756D02*
G01Y-3502D01*
G01X-14540Y-2756D02*
G01Y-3502D01*
G01X-14044Y-2756D02*
G01Y-3502D01*
G01X-14540Y-3111D02*
G01X-14044D01*
G01X-13227Y-3005D02*
G01X-13618Y-3502D01*
G01Y-3005D02*
G01X-13227D01*
G01X-13618Y-3502D02*
G01X-13227D01*
M02*

